 <svg
        xmlns="http://www.w3.org/2000/svg"
        fill="#888686"
        width="18"
        height="18"
        viewBox="0 0 32 32"
      >
        <path d="M21.16 27.308c.724-1.71 1.246-3.766 1.568-5.976h4.496c-1.256 2.634-3.406 4.756-6.064 5.976zm-16.388-5.976h4.498c.32 2.21.844 4.264 1.566 5.976-2.656-1.218-4.808-3.34-6.064-5.976zm6.064-16.644c-.722 1.71-1.246 3.766-1.566 5.976h-4.498c1.256-2.636 3.406-4.76 6.064-5.976zm16.388 5.976h-4.496c-.322-2.21-.844-4.266-1.568-5.976 2.658 1.218 4.808 3.342 6.064 5.976zm-4.16 3.556h5.238c.084.582.142 1.172.142 1.778 0 .604-.06 1.194-.142 1.778h-5.238c.028-.592.046-1.184.046-1.778s-.018-1.188-.046-1.778zm-7.064-10.666c.776 0 2.392 2.46 3.146 7.112h-6.296c.756-4.65 2.374-7.112 3.148-7.112zm-12.444 12.444c0-.606.056-1.196.142-1.778h5.236c-.026.59-.044 1.184-.044 1.778s.018 1.186.044 1.778h-5.236c-.086-.584-.142-1.174-.142-1.778zm8.936 1.778c-.028-.574-.046-1.16-.046-1.778 0-.616.018-1.206.046-1.778h7.016c.028.572.048 1.16.048 1.778 0 .616-.02 1.204-.048 1.778h-7.016zm3.51 10.666c-.776 0-2.392-2.462-3.148-7.112h6.296c-.756 4.648-2.372 7.112-3.146 7.112zm0-28.444c-8.824 0-16 7.176-16 16s7.176 16 16 16 16-7.176 16-16-7.176-16-16-16z" />
      </svg>