<svg  xmlns="http://www.w3.org/2000/svg" aria-hidden="true" aria-labelledby="title" version="1.1" role="img" width="24" height="24" viewBox="0 0 24 24" fill="#fff"><path d="M17.414 8.642c-.398.177-.826.296-1.276.35.459-.275.811-.71.977-1.229-.43.254-.905.439-1.41.539-.405-.432-.982-.702-1.621-.702-1.227 0-2.222.994-2.222 2.222 0 .174.019.344.058.506-1.846-.093-3.484-.978-4.579-2.322-.191.328-.301.71-.301 1.117 0 .77.392 1.45.988 1.849-.363-.011-.706-.111-1.006-.278v.028c0 1.077.766 1.974 1.782 2.178-.187.051-.383.078-.586.078-.143 0-.282-.014-.418-.04.282.882 1.103 1.525 2.075 1.542-.76.596-1.718.951-2.759.951-.179 0-.356-.01-.53-.031.983.63 2.15.998 3.406.998 4.086 0 6.321-3.386 6.321-6.321l-.006-.287c.433-.314.81-.705 1.107-1.15z"></path></svg>