<svg xmlns="http://www.w3.org/2000/svg" fill="#fff" aria-hidden="true" aria-labelledby="title" version="1.1" role="img" width="24" height="24" viewBox="0 0 24 24"><path d="M16.066 11.93s1.62-2.286 1.782-3.037c.054-.268-.064-.418-.343-.418h-1.406c-.322 0-.44.139-.537.343 0 0-.76 1.619-1.685 2.64-.297.33-.448.429-.612.429-.132 0-.193-.11-.193-.408v-2.607c0-.365-.043-.472-.343-.472h-2.254c-.172 0-.279.1-.279.236 0 .343.526.421.526 1.352v1.921c0 .386-.022.537-.204.537-.483 0-1.631-1.663-2.274-3.552-.129-.386-.268-.494-.633-.494h-1.406c-.204 0-.354.139-.354.343 0 .375.44 2.114 2.167 4.442 1.159 1.566 2.683 2.414 4.056 2.414.838 0 1.041-.139 1.041-.494v-1.202c0-.301.118-.429.29-.429.193 0 .534.062 1.33.848.945.901 1.01 1.276 1.525 1.276h1.578c.161 0 .311-.075.311-.343 0-.354-.462-.987-1.17-1.738-.29-.386-.762-.805-.912-.998-.215-.226-.151-.354-.001-.59z"></path></svg>