<svg xmlns="http://www.w3.org/2000/svg"  width="32" height="32" viewBox="0 0 32 32"><path fill="#f00" d="M3.2 0h25.6c1.767 0 3.2 1.433 3.2 3.2v25.6c0 1.767-1.433 3.2-3.2 3.2h-25.6c-1.767 0-3.2-1.433-3.2-3.2v-25.6c0-1.767 1.433-3.2 3.2-3.2z"></path><path fill="#d00000" d="M13.661 32h-6.157l12.409-9.537 2.44 2.811-8.693 6.726zm3.782-32h5.883l-10.515 8.777-2.44-2.811 7.072-5.966z"></path><path fill="#f8b3b2" d="M10.4 17.879l9.474-7.314 2.441 2.812-9.475 7.314z"></path><path fill="#fff" d="M10.417 5.954l11.909 3.897v3.543l-11.909-3.897v-3.543zm0 11.909l11.909 3.897v3.543l-11.909-3.897v-3.543z"></path></svg>